<?xml version="1.0" encoding="UTF-8" standalone="no"?>
<!DOCTYPE svg PUBLIC "-//W3C//DTD SVG 1.1//EN" "http://www.w3.org/Graphics/SVG/1.1/DTD/svg11.dtd">
<!-- Generated by Microsoft Visio, SVG Export tcp-layer-4-header.svg Page-1 -->
<svg xmlns="http://www.w3.org/2000/svg" xmlns:xlink="http://www.w3.org/1999/xlink" xmlns:ev="http://www.w3.org/2001/xml-events"
		xmlns:v="http://schemas.microsoft.com/visio/2003/SVGExtensions/" width="7.18326in" height="4.41502in"
		viewBox="0 0 517.195 317.881" xml:space="preserve" color-interpolation-filters="sRGB" class="st33">
	<v:documentProperties v:langID="1026" v:metric="true" v:viewMarkup="false"/>

	<style type="text/css">
	<![CDATA[
		.st1 {fill:#fff2cc;stroke:none;stroke-linecap:round;stroke-linejoin:round;stroke-width:0.75}
		.st2 {fill:#0e6f9c;stroke:#ffffff;stroke-linecap:round;stroke-linejoin:round;stroke-width:1.25}
		.st3 {fill:#2f698c;stroke:#ffffff;stroke-linecap:round;stroke-linejoin:round;stroke-width:1.25}
		.st4 {fill:none;stroke:none;stroke-width:1.25}
		.st5 {fill:none;stroke:none;stroke-width:0.999998}
		.st6 {fill:none;stroke:none;stroke-width:0.999999}
		.st7 {fill:none}
		.st8 {stroke:#ffffff;stroke-linecap:round;stroke-linejoin:round;stroke-width:1.25}
		.st9 {fill:none;stroke:#ffffff;stroke-linecap:round;stroke-linejoin:round;stroke-width:1.25}
		.st10 {fill:#0e6f9c;stroke:none;stroke-linecap:butt;stroke-width:9.37499}
		.st11 {fill:#0e6f9c;stroke:#ffffff;stroke-linecap:butt;stroke-width:0.999998}
		.st12 {fill:#ffffff;stroke:none;stroke-linecap:round;stroke-linejoin:round;stroke-width:0.24}
		.st13 {fill:#0e6f9c;stroke:none;stroke-linecap:butt;stroke-width:1.19531}
		.st14 {stroke:#d8d8d8;stroke-linecap:round;stroke-linejoin:round;stroke-width:1.25}
		.st15 {fill:#fff2cc;fill-opacity:0.65;stroke:none;stroke-linecap:round;stroke-linejoin:round;stroke-width:0.75}
		.st16 {fill:#000000;font-family:Arial;font-size:1.00001em}
		.st17 {fill:#ffd965;stroke:#000000;stroke-linecap:round;stroke-linejoin:round;stroke-width:1}
		.st18 {fill:#000000;font-family:Arial;font-size:1.00001em;font-weight:bold}
		.st19 {font-size:1em;font-weight:normal}
		.st20 {fill:#f2f2f2;stroke:#000000;stroke-linecap:round;stroke-linejoin:round;stroke-width:1.25}
		.st21 {fill:#3f3f3f;font-family:Arial;font-size:1.16666em;font-weight:bold}
		.st22 {fill:#ffd965;stroke:#000000;stroke-linecap:round;stroke-linejoin:round;stroke-width:1.25}
		.st23 {fill:#3f3f3f;font-family:Arial;font-size:1.00001em}
		.st24 {font-size:1em}
		.st25 {fill:#ffc000;stroke:#000000;stroke-linecap:round;stroke-linejoin:round;stroke-width:1.25}
		.st26 {stroke:#000000;stroke-linecap:butt;stroke-width:1.25}
		.st27 {stroke:#000000;stroke-linecap:round;stroke-linejoin:round;stroke-width:1.25}
		.st28 {marker-end:url(#mrkr2-222);stroke:#000000;stroke-linecap:round;stroke-linejoin:round;stroke-width:1}
		.st29 {fill:#000000;fill-opacity:1;stroke:#000000;stroke-opacity:1;stroke-width:0.40983606557377}
		.st30 {stroke:#000000;stroke-linecap:round;stroke-linejoin:round;stroke-width:1}
		.st31 {fill:none;stroke:none;stroke-linecap:round;stroke-linejoin:round;stroke-width:0.75}
		.st32 {fill:#000000;font-family:Arial;font-size:1.5em}
		.st33 {fill:none;fill-rule:evenodd;font-size:12px;overflow:visible;stroke-linecap:square;stroke-miterlimit:3}
	]]>
	</style>

	<defs id="Markers">
		<g id="lend2">
			<path d="M 1 1 L 0 0 L 1 -1 L 1 1 " style="stroke:none"/>
		</g>
		<marker id="mrkr2-222" class="st29" v:arrowType="2" v:arrowSize="0" v:setback="2.44" refX="-2.44" orient="auto"
				markerUnits="strokeWidth" overflow="visible">
			<use xlink:href="#lend2" transform="scale(-2.44,-2.44) "/>
		</marker>
	</defs>
	<g v:mID="0" v:index="1" v:groupContext="foregroundPage">
		<title>Page-1</title>
		<v:pageProperties v:drawingScale="0.0393701" v:pageScale="0.0393701" v:drawingUnits="24" v:shadowOffsetX="9"
				v:shadowOffsetY="-9"/>
		<g id="group478-1" transform="translate(0.375,-0.5)" v:mID="478" v:groupContext="group">
			<title>Sheet.478</title>
			<g id="shape473-2" v:mID="473" v:groupContext="shape" transform="translate(63.6938,-177.145)">
				<title>Sheet.473</title>
				<path d="M181.93 271.24 L0 316.67 L391.92 317.88 L211.18 271.85 L181.93 271.24 Z" class="st1"/>
			</g>
			<g id="group28-4" transform="translate(465.18,-227.541)" v:mID="28" v:groupContext="group">
				<title>Sheet.28</title>
				<g id="shape29-5" v:mID="29" v:groupContext="shape">
					<title>Sheet.29</title>
					<path d="M0 262.09 L0 317.88 L38.96 317.88 L38.96 262.09 L0 262.09 Z" class="st2"/>
				</g>
				<g id="shape30-7" v:mID="30" v:groupContext="shape" transform="translate(0,-55.8028)">
					<title>Sheet.30</title>
					<path d="M0 317.88 L11.37 306.51 L50.31 306.51 L38.96 317.88 L0 317.88 Z" class="st2"/>
				</g>
				<g id="shape31-9" v:mID="31" v:groupContext="shape" transform="translate(38.9513,-1.64846E-12)">
					<title>Sheet.31</title>
					<path d="M0 317.88 L11.37 306.51 L11.37 250.71 L0 262.09 L0 317.88 Z" class="st3"/>
				</g>
				<g id="group32-11" transform="translate(0.710047,-40.4547)" v:mID="32" v:groupContext="group">
					<title>Sheet.32</title>
					<g id="shape33-12" v:mID="33" v:groupContext="shape">
						<title>Sheet.33</title>
						<path d="M0 317.88 L37.62 317.88 L0 317.88 Z" class="st4"/>
					</g>
					<g id="group34-14" v:mID="34" v:groupContext="group">
						<title>Sheet.34</title>
						<g id="shape35-15" v:mID="35" v:groupContext="shape">
							<title>Sheet.35</title>
							<path d="M0 317.88 L37.62 317.88 L0 317.88 Z" class="st4"/>
						</g>
						<g id="group36-17" v:mID="36" v:groupContext="group">
							<title>Sheet.36</title>
							<g id="shape37-18" v:mID="37" v:groupContext="shape">
								<title>Sheet.37</title>
								<path d="M0 317.88 L37.62 317.88 L0 317.88 Z" class="st4"/>
							</g>
							<g id="group38-20" v:mID="38" v:groupContext="group">
								<title>Sheet.38</title>
								<g id="shape39-21" v:mID="39" v:groupContext="shape">
									<title>Sheet.39</title>
									<path d="M0 317.88 L37.62 317.88 L0 317.88 Z" class="st5"/>
								</g>
								<g id="group40-23" v:mID="40" v:groupContext="group">
									<title>Sheet.40</title>
									<g id="shape41-24" v:mID="41" v:groupContext="shape">
										<title>Sheet.41</title>
										<path d="M0 317.88 L37.62 317.88 L0 317.88 Z" class="st6"/>
									</g>
									<g id="shape42-26" v:mID="42" v:groupContext="shape">
										<title>Sheet.42</title>
										<path d="M0 317.88 L37.62 317.88 L0 317.88 Z" class="st7"/>
										<path d="M0 317.88 L37.62 317.88" class="st8"/>
									</g>
								</g>
							</g>
						</g>
					</g>
				</g>
				<g id="group43-29" transform="translate(0.405742,-40.7595)" v:mID="43" v:groupContext="group">
					<title>Sheet.43</title>
					<g id="shape44-30" v:mID="44" v:groupContext="shape">
						<title>Sheet.44</title>
						<path d="M0 317.88 L38.14 317.88 L0 317.88 Z" class="st4"/>
					</g>
					<g id="group45-32" v:mID="45" v:groupContext="group">
						<title>Sheet.45</title>
						<g id="shape46-33" v:mID="46" v:groupContext="shape">
							<title>Sheet.46</title>
							<path d="M0 317.88 L38.14 317.88 L0 317.88 Z" class="st4"/>
						</g>
						<g id="group47-35" v:mID="47" v:groupContext="group">
							<title>Sheet.47</title>
							<g id="shape48-36" v:mID="48" v:groupContext="shape">
								<title>Sheet.48</title>
								<path d="M0 317.88 L38.14 317.88 L0 317.88 Z" class="st4"/>
							</g>
							<g id="group49-38" v:mID="49" v:groupContext="group">
								<title>Sheet.49</title>
								<g id="shape50-39" v:mID="50" v:groupContext="shape">
									<title>Sheet.50</title>
									<path d="M0 317.88 L38.14 317.88 L0 317.88 Z" class="st5"/>
								</g>
								<g id="group51-41" v:mID="51" v:groupContext="group">
									<title>Sheet.51</title>
									<g id="shape52-42" v:mID="52" v:groupContext="shape">
										<title>Sheet.52</title>
										<path d="M0 317.88 L38.14 317.88 L0 317.88 Z" class="st6"/>
									</g>
									<g id="shape53-44" v:mID="53" v:groupContext="shape">
										<title>Sheet.53</title>
										<path d="M0 317.88 L38.14 317.88 L0 317.88 Z" class="st7"/>
										<path d="M0 317.88 L38.14 317.88" class="st8"/>
									</g>
								</g>
							</g>
						</g>
					</g>
				</g>
				<g id="group54-47" transform="translate(0.710047,-22.1585)" v:mID="54" v:groupContext="group">
					<title>Sheet.54</title>
					<g id="shape55-48" v:mID="55" v:groupContext="shape">
						<title>Sheet.55</title>
						<path d="M0 317.88 L37.54 317.88 L0 317.88 Z" class="st4"/>
					</g>
					<g id="group56-50" v:mID="56" v:groupContext="group">
						<title>Sheet.56</title>
						<g id="shape57-51" v:mID="57" v:groupContext="shape">
							<title>Sheet.57</title>
							<path d="M0 317.88 L37.54 317.88 L0 317.88 Z" class="st4"/>
						</g>
						<g id="group58-53" v:mID="58" v:groupContext="group">
							<title>Sheet.58</title>
							<g id="shape59-54" v:mID="59" v:groupContext="shape">
								<title>Sheet.59</title>
								<path d="M0 317.88 L37.54 317.88 L0 317.88 Z" class="st4"/>
							</g>
							<g id="group60-56" v:mID="60" v:groupContext="group">
								<title>Sheet.60</title>
								<g id="shape61-57" v:mID="61" v:groupContext="shape">
									<title>Sheet.61</title>
									<path d="M0 317.88 L37.54 317.88 L0 317.88 Z" class="st5"/>
								</g>
								<g id="group62-59" v:mID="62" v:groupContext="group">
									<title>Sheet.62</title>
									<g id="shape63-60" v:mID="63" v:groupContext="shape">
										<title>Sheet.63</title>
										<path d="M0 317.88 L37.54 317.88 L0 317.88 Z" class="st6"/>
									</g>
									<g id="shape64-62" v:mID="64" v:groupContext="shape">
										<title>Sheet.64</title>
										<path d="M0 317.88 L37.54 317.88 L0 317.88 Z" class="st7"/>
										<path d="M0 317.88 L37.54 317.88" class="st8"/>
									</g>
								</g>
							</g>
						</g>
					</g>
				</g>
				<g id="group65-65" transform="translate(0.405742,-22.4634)" v:mID="65" v:groupContext="group">
					<title>Sheet.65</title>
					<g id="shape66-66" v:mID="66" v:groupContext="shape">
						<title>Sheet.66</title>
						<path d="M0 317.88 L38.14 317.88 L0 317.88 Z" class="st4"/>
					</g>
					<g id="group67-68" v:mID="67" v:groupContext="group">
						<title>Sheet.67</title>
						<g id="shape68-69" v:mID="68" v:groupContext="shape">
							<title>Sheet.68</title>
							<path d="M0 317.88 L38.14 317.88 L0 317.88 Z" class="st4"/>
						</g>
						<g id="group69-71" v:mID="69" v:groupContext="group">
							<title>Sheet.69</title>
							<g id="shape70-72" v:mID="70" v:groupContext="shape">
								<title>Sheet.70</title>
								<path d="M0 317.88 L38.14 317.88 L0 317.88 Z" class="st4"/>
							</g>
							<g id="group71-74" v:mID="71" v:groupContext="group">
								<title>Sheet.71</title>
								<g id="shape72-75" v:mID="72" v:groupContext="shape">
									<title>Sheet.72</title>
									<path d="M0 317.88 L38.14 317.88 L0 317.88 Z" class="st5"/>
								</g>
								<g id="group73-77" v:mID="73" v:groupContext="group">
									<title>Sheet.73</title>
									<g id="shape74-78" v:mID="74" v:groupContext="shape">
										<title>Sheet.74</title>
										<path d="M0 317.88 L38.14 317.88 L0 317.88 Z" class="st6"/>
									</g>
									<g id="shape75-80" v:mID="75" v:groupContext="shape">
										<title>Sheet.75</title>
										<path d="M0 317.88 L38.14 317.88 L0 317.88 Z" class="st7"/>
										<path d="M0 317.88 L38.14 317.88" class="st8"/>
									</g>
								</g>
							</g>
						</g>
					</g>
				</g>
				<g id="group76-83" transform="translate(13.7953,-29.7819)" v:mID="76" v:groupContext="group">
					<title>Sheet.76</title>
					<g id="shape77-84" v:mID="77" v:groupContext="shape">
						<title>Sheet.77</title>
						<path d="M0 317.88 L11.06 317.88 L0 317.88 Z" class="st4"/>
					</g>
					<g id="group78-86" v:mID="78" v:groupContext="group">
						<title>Sheet.78</title>
						<g id="shape79-87" v:mID="79" v:groupContext="shape">
							<title>Sheet.79</title>
							<path d="M0 317.88 L11.06 317.88 L0 317.88 Z" class="st4"/>
						</g>
						<g id="group80-89" v:mID="80" v:groupContext="group">
							<title>Sheet.80</title>
							<g id="shape81-90" v:mID="81" v:groupContext="shape">
								<title>Sheet.81</title>
								<path d="M0 317.88 L11.06 317.88 L0 317.88 Z" class="st4"/>
							</g>
							<g id="group82-92" v:mID="82" v:groupContext="group">
								<title>Sheet.82</title>
								<g id="shape83-93" v:mID="83" v:groupContext="shape">
									<title>Sheet.83</title>
									<path d="M0 317.88 L11.06 317.88 L0 317.88 Z" class="st5"/>
								</g>
								<g id="group84-95" v:mID="84" v:groupContext="group">
									<title>Sheet.84</title>
									<g id="shape85-96" v:mID="85" v:groupContext="shape">
										<title>Sheet.85</title>
										<path d="M0 317.88 L11.06 317.88 L0 317.88 Z" class="st6"/>
									</g>
									<g id="shape86-98" v:mID="86" v:groupContext="shape">
										<title>Sheet.86</title>
										<path d="M0 317.88 L11.06 317.88 L0 317.88 Z" class="st7"/>
										<path d="M0 317.88 L11.06 317.88" class="st8"/>
									</g>
								</g>
							</g>
						</g>
					</g>
				</g>
				<g id="shape87-101" v:mID="87" v:groupContext="shape" transform="translate(9.43353,-25.9193)">
					<title>Sheet.87</title>
					<path d="M19.47 317.88 L19.47 307.21 L0 307.21 L0 317.88 L19.47 317.88 Z" class="st9"/>
				</g>
				<g id="group88-103" transform="translate(13.3896,-33.5427)" v:mID="88" v:groupContext="group">
					<title>Sheet.88</title>
					<g id="shape89-104" v:mID="89" v:groupContext="shape">
						<title>Sheet.89</title>
						<path d="M0 317.88 L11.06 317.88 L0 317.88 Z" class="st4"/>
					</g>
					<g id="group90-106" v:mID="90" v:groupContext="group">
						<title>Sheet.90</title>
						<g id="shape91-107" v:mID="91" v:groupContext="shape">
							<title>Sheet.91</title>
							<path d="M0 317.88 L11.06 317.88 L0 317.88 Z" class="st4"/>
						</g>
						<g id="group92-109" v:mID="92" v:groupContext="group">
							<title>Sheet.92</title>
							<g id="shape93-110" v:mID="93" v:groupContext="shape">
								<title>Sheet.93</title>
								<path d="M0 317.88 L11.06 317.88 L0 317.88 Z" class="st4"/>
							</g>
							<g id="group94-112" v:mID="94" v:groupContext="group">
								<title>Sheet.94</title>
								<g id="shape95-113" v:mID="95" v:groupContext="shape">
									<title>Sheet.95</title>
									<path d="M0 317.88 L11.06 317.88 L0 317.88 Z" class="st5"/>
								</g>
								<g id="group96-115" v:mID="96" v:groupContext="group">
									<title>Sheet.96</title>
									<g id="shape97-116" v:mID="97" v:groupContext="shape">
										<title>Sheet.97</title>
										<path d="M0 317.88 L11.06 317.88 L0 317.88 Z" class="st6"/>
									</g>
									<g id="shape98-118" v:mID="98" v:groupContext="shape">
										<title>Sheet.98</title>
										<path d="M0 317.88 L11.06 317.88 L0 317.88 Z" class="st7"/>
										<path d="M0 317.88 L11.06 317.88" class="st8"/>
									</g>
								</g>
							</g>
						</g>
					</g>
				</g>
			</g>
			<g id="group99-121" transform="translate(7.33174,-226.463)" v:mID="99" v:groupContext="group">
				<title>Wired Client</title>
				<g id="group100-122" v:mID="100" v:groupContext="group">
					<title>Sheet.100</title>
					<g id="group101-123" v:mID="101" v:groupContext="group">
						<title>Sheet.101</title>
						<g id="group102-124" transform="translate(8.01831,-28.5763)" v:mID="102" v:groupContext="group">
							<title>Sheet.102</title>
							<g id="shape103-125" v:mID="103" v:groupContext="shape" transform="translate(8.90171,-25.5482)">
								<title>Sheet.103</title>
								<ellipse cx="13.7093" cy="304.172" rx="13.7093" ry="13.7093" class="st10"/>
							</g>
							<g id="shape104-127" v:mID="104" v:groupContext="shape">
								<title>Sheet.104</title>
								<path d="M45.22 317.88 L45.22 305.79 C45.22 305.72 45.22 305.65 45.22 305.6 C45.15 297.63 37.08 292.09
											 29.49 294.49 C27.32 295.17 25 295.54 22.61 295.54 C20.22 295.54 17.9 295.17 15.73 294.49
											 C8.14 292.08 0.06 297.62 0 305.6 C0 305.67 0 305.74 0 305.79 L0 317.88 L45.22 317.88
											 Z" class="st10"/>
							</g>
						</g>
						<g id="shape105-129" v:mID="105" v:groupContext="shape" transform="translate(0,-4.84394)">
							<title>Sheet.105</title>
							<path d="M55.89 282.92 L5.37 282.92 C2.36 282.92 0 285.52 0.29 288.51 L3.5 317.88 L57.76 317.88 L60.97
										 288.51 C61.26 285.51 58.92 282.92 55.89 282.92 Z" class="st11"/>
						</g>
						<g id="shape106-131" v:mID="106" v:groupContext="shape" transform="translate(1.78374,-5.68434E-14)">
							<title>Sheet.106</title>
							<rect x="0" y="313.04" width="57.6914" height="4.84159" class="st10"/>
						</g>
					</g>
				</g>
				<g id="group107-133" transform="translate(17.9974,-11.0512)" v:mID="107" v:groupContext="group">
					<title>Sheet.107</title>
					<g id="shape108-134" v:mID="108" v:groupContext="shape" transform="translate(5.98978,-1.26199)">
						<title>Rectangle</title>
						<v:userDefs>
							<v:ud v:nameU="visVersion" v:val="VT0(15):26"/>
						</v:userDefs>
						<rect x="0" y="296.707" width="15.9776" height="21.174" class="st12"/>
					</g>
					<g id="shape109-136" v:mID="109" v:groupContext="shape">
						<title>Sheet.109</title>
						<path d="M23.45 292.42 L0 292.42 L0 317.88 L23.45 317.88 L23.45 292.42 ZM10.49 302.95 C12.14 302.42 13.96
									 303.13 14.27 304.1 C14.6 303.13 16.43 302.47 18.06 303.03 C18.7 303.25 19.28 303.61 19.78 304.07
									 C18.19 304.82 17.1 306.44 17.1 308.3 C17.1 310.25 18.3 311.93 20 312.62 C18.57 314.67 16.26
									 315.67 14.14 315.66 C10.9 315.62 7.24 313.17 7.08 308.33 C6.96 305.46 8.55 303.57 10.49 302.95
									 ZM18.62 297.57 C18.62 299.93 16.51 302.29 14.15 301.77 C14.15 301.77 14.41 297.57 18.62 297.57
									 Z" class="st13"/>
					</g>
				</g>
			</g>
			<g id="shape128-138" v:mID="128" v:groupContext="shape" transform="translate(82.2047,-231.247)">
				<title>Sheet.128</title>
				<path d="M0 317.88 L379.84 317.88" class="st14"/>
			</g>
			<g id="shape4-141" v:mID="4" v:groupContext="shape" transform="translate(124.109,-127.782)">
				<title>Sheet.4</title>
				<desc>TCP header (20 bytes)</desc>
				<v:textBlock v:margins="rect(0,0,4,0)" v:tabSpace="42.5197" v:verticalAlign="2"/>
				<v:textRect cx="161.745" cy="304.174" width="323.5" height="27.4158"/>
				<path d="M130.96 290.47 L0 317.88 L323.49 317.88 L192.52 290.47 L130.96 290.47 Z" class="st15"/>
				<text x="101.05" y="310.88" class="st16" v:langID="1033"><v:paragraph v:spLine="-1" v:horizAlign="1"/><v:tabList/>TCP header (20 bytes)</text>			</g>
			<g id="shape6-144" v:mID="6" v:groupContext="shape" transform="translate(124.109,0)">
				<title>Rectangle.9</title>
				<desc>Options</desc>
				<v:userDefs>
					<v:ud v:nameU="visVersion" v:val="VT0(15):26"/>
				</v:userDefs>
				<v:textBlock v:margins="rect(4,4,4,4)" v:tabSpace="42.5197"/>
				<v:textRect cx="161.743" cy="307.192" width="323.5" height="21.378"/>
				<rect x="0" y="296.503" width="323.485" height="21.378" class="st17"/>
				<text x="141.07" y="310.79" class="st16" v:langID="1026"><v:paragraph v:horizAlign="1"/><v:tabList/>Options</text>			</g>
			<g id="shape7-147" v:mID="7" v:groupContext="shape" transform="translate(124.109,-21.3779)">
				<title>Rectangle.10</title>
				<desc>Checksum (16 bits)</desc>
				<v:userDefs>
					<v:ud v:nameU="visVersion" v:val="VT0(15):26"/>
				</v:userDefs>
				<v:textBlock v:margins="rect(4,4,4,4)" v:tabSpace="42.5197"/>
				<v:textRect cx="80.8712" cy="307.192" width="161.76" height="21.378"/>
				<rect x="0" y="296.503" width="161.743" height="21.378" class="st17"/>
				<text x="29.19" y="310.79" class="st16" v:langID="1026"><v:paragraph v:horizAlign="1"/><v:tabList/>Checksum (16 bits)</text>			</g>
			<g id="shape8-150" v:mID="8" v:groupContext="shape" transform="translate(124.109,-42.7559)">
				<title>Rectangle.11</title>
				<desc>DO</desc>
				<v:userDefs>
					<v:ud v:nameU="visVersion" v:val="VT0(15):26"/>
				</v:userDefs>
				<v:textBlock v:margins="rect(4,4,4,4)" v:tabSpace="42.5197"/>
				<v:textRect cx="26.957" cy="307.192" width="53.93" height="21.378"/>
				<rect x="0" y="296.503" width="53.9142" height="21.378" class="st17"/>
				<text x="17.96" y="310.79" class="st16" v:langID="1026"><v:paragraph v:horizAlign="1"/><v:tabList/>DO</text>			</g>
			<g id="shape9-153" v:mID="9" v:groupContext="shape" transform="translate(178.023,-42.7559)">
				<title>Rectangle.12</title>
				<desc>RSV</desc>
				<v:userDefs>
					<v:ud v:nameU="visVersion" v:val="VT0(15):26"/>
				</v:userDefs>
				<v:textBlock v:margins="rect(4,4,4,4)" v:tabSpace="42.5197"/>
				<v:textRect cx="26.957" cy="307.192" width="53.93" height="21.378"/>
				<rect x="0" y="296.503" width="53.9142" height="21.378" class="st17"/>
				<text x="14.62" y="310.79" class="st16" v:langID="1026"><v:paragraph v:horizAlign="1"/><v:tabList/>RSV</text>			</g>
			<g id="shape10-156" v:mID="10" v:groupContext="shape" transform="translate(231.937,-42.7559)">
				<title>Rectangle.13</title>
				<desc>Flags</desc>
				<v:userDefs>
					<v:ud v:nameU="visVersion" v:val="VT0(15):26"/>
				</v:userDefs>
				<v:textBlock v:margins="rect(4,4,4,4)" v:tabSpace="42.5197"/>
				<v:textRect cx="26.957" cy="307.192" width="53.93" height="21.378"/>
				<rect x="0" y="296.503" width="53.9142" height="21.378" class="st17"/>
				<text x="12.28" y="310.79" class="st16" v:langID="1026"><v:paragraph v:horizAlign="1"/><v:tabList/>Flags</text>			</g>
			<g id="shape11-159" v:mID="11" v:groupContext="shape" transform="translate(285.852,-21.3779)">
				<title>Rectangle.14</title>
				<desc>Urgent pointer (16 bits)</desc>
				<v:userDefs>
					<v:ud v:nameU="visVersion" v:val="VT0(15):26"/>
				</v:userDefs>
				<v:textBlock v:margins="rect(4,4,4,4)" v:tabSpace="42.5197"/>
				<v:textRect cx="80.8712" cy="307.192" width="161.76" height="21.378"/>
				<rect x="0" y="296.503" width="161.743" height="21.378" class="st17"/>
				<text x="19.51" y="310.79" class="st16" v:langID="1026"><v:paragraph v:horizAlign="1"/><v:tabList/>Urgent pointer (16 bits)</text>			</g>
			<g id="shape12-162" v:mID="12" v:groupContext="shape" transform="translate(285.852,-42.7559)">
				<title>Rectangle.15</title>
				<desc>Window size (16 bits)</desc>
				<v:userDefs>
					<v:ud v:nameU="visVersion" v:val="VT0(15):26"/>
				</v:userDefs>
				<v:textBlock v:margins="rect(4,4,4,4)" v:tabSpace="42.5197"/>
				<v:textRect cx="80.8712" cy="307.192" width="161.76" height="21.378"/>
				<rect x="0" y="296.503" width="161.743" height="21.378" class="st17"/>
				<text x="23.85" y="310.79" class="st16" v:langID="1026"><v:paragraph v:horizAlign="1"/><v:tabList/>Window size (16 bits)</text>			</g>
			<g id="shape13-165" v:mID="13" v:groupContext="shape" transform="translate(124.109,-64.1339)">
				<title>Rectangle.17</title>
				<desc>Acknowledgment number (32 bits)</desc>
				<v:userDefs>
					<v:ud v:nameU="visVersion" v:val="VT0(15):26"/>
				</v:userDefs>
				<v:textBlock v:margins="rect(4,4,4,4)" v:tabSpace="42.5197"/>
				<v:textRect cx="161.743" cy="307.192" width="323.5" height="21.378"/>
				<rect x="0" y="296.503" width="323.485" height="21.378" class="st17"/>
				<text x="70.7" y="310.79" class="st16" v:langID="1026"><v:paragraph v:horizAlign="1"/><v:tabList/>Acknowledgment number (32 bits)</text>			</g>
			<g id="shape14-168" v:mID="14" v:groupContext="shape" transform="translate(124.109,-85.5118)">
				<title>Rectangle.18</title>
				<desc>Sequence number (32 bits)</desc>
				<v:userDefs>
					<v:ud v:nameU="visVersion" v:val="VT0(15):26"/>
				</v:userDefs>
				<v:textBlock v:margins="rect(4,4,4,4)" v:tabSpace="42.5197"/>
				<v:textRect cx="161.743" cy="307.192" width="323.5" height="21.378"/>
				<rect x="0" y="296.503" width="323.485" height="21.378" class="st17"/>
				<text x="89.37" y="310.79" class="st16" v:langID="1026"><v:paragraph v:horizAlign="1"/><v:tabList/>Sequence number (32 bits)</text>			</g>
			<g id="shape15-171" v:mID="15" v:groupContext="shape" transform="translate(124.109,-106.89)">
				<title>Rectangle.20</title>
				<desc>Source port (16 bits)</desc>
				<v:userDefs>
					<v:ud v:nameU="visVersion" v:val="VT0(15):26"/>
				</v:userDefs>
				<v:textBlock v:margins="rect(4,4,4,4)" v:tabSpace="42.5197"/>
				<v:textRect cx="80.8712" cy="307.192" width="161.76" height="21.378"/>
				<rect x="0" y="296.503" width="161.743" height="21.378" class="st17"/>
				<text x="23.86" y="310.79" class="st18" v:langID="1026"><v:paragraph v:horizAlign="1"/><v:tabList/>Source port<tspan
							class="st19"> </tspan><tspan class="st19">(16 bits)</tspan></text>			</g>
			<g id="shape16-176" v:mID="16" v:groupContext="shape" transform="translate(285.852,-106.89)">
				<title>Rectangle.21</title>
				<desc>Destination port (16 bits)</desc>
				<v:userDefs>
					<v:ud v:nameU="visVersion" v:val="VT0(15):26"/>
				</v:userDefs>
				<v:textBlock v:margins="rect(4,4,4,4)" v:tabSpace="42.5197"/>
				<v:textRect cx="80.8712" cy="307.192" width="161.76" height="21.378"/>
				<rect x="0" y="296.503" width="161.743" height="21.378" class="st17"/>
				<text x="11.53" y="310.79" class="st18" v:langID="1026"><v:paragraph v:horizAlign="1"/><v:tabList/>Destination port<tspan
							class="st19"> </tspan><tspan class="st19">(16 bits)</tspan></text>			</g>
			<g id="shape20-181" v:mID="20" v:groupContext="shape" transform="translate(123.877,-155.197)">
				<title>Rectangle</title>
				<desc>Data</desc>
				<v:userDefs>
					<v:ud v:nameU="visVersion" v:val="VT0(15):26"/>
				</v:userDefs>
				<v:textBlock v:margins="rect(4,4,4,4)" v:tabSpace="42.5197"/>
				<v:textRect cx="26.9403" cy="305.965" width="53.89" height="23.8323"/>
				<rect x="0" y="294.049" width="53.8806" height="23.8323" class="st20"/>
				<text x="11.77" y="310.17" class="st21" v:langID="1026"><v:paragraph v:horizAlign="1"/><v:tabList/>Data</text>			</g>
			<g id="shape21-184" v:mID="21" v:groupContext="shape" transform="translate(241.705,-155.197)">
				<title>Rectangle.2</title>
				<desc>L4 Header</desc>
				<v:userDefs>
					<v:ud v:nameU="visVersion" v:val="VT0(15):26"/>
				</v:userDefs>
				<v:textBlock v:margins="rect(4,4,4,4)" v:tabSpace="42.5197"/>
				<v:textRect cx="43.2741" cy="305.965" width="86.56" height="23.8323"/>
				<rect x="0" y="294.049" width="86.5484" height="23.8323" class="st22"/>
				<text x="15.25" y="309.57" class="st16" v:langID="1026"><v:paragraph v:horizAlign="1"/><v:tabList/>L4 Header</text>			</g>
			<g id="shape22-187" v:mID="22" v:groupContext="shape" transform="translate(328.254,-155.197)">
				<title>Rectangle.3</title>
				<desc>L3 Header</desc>
				<v:userDefs>
					<v:ud v:nameU="visVersion" v:val="VT0(15):26"/>
				</v:userDefs>
				<v:textBlock v:margins="rect(4,4,4,4)" v:tabSpace="42.5197"/>
				<v:textRect cx="32.1594" cy="305.965" width="64.33" height="23.8323"/>
				<rect x="0" y="294.049" width="64.319" height="23.8323" class="st20"/>
				<text x="4.14" y="309.57" class="st23" v:langID="1026"><v:paragraph v:horizAlign="1"/><v:tabList/>L3 Header</text>			</g>
			<g id="shape26-190" v:mID="26" v:groupContext="shape" transform="translate(392.573,-155.197)">
				<title>Rectangle.4</title>
				<desc>L2 Header</desc>
				<v:userDefs>
					<v:ud v:nameU="CTypeTopLeftSnip" v:prompt="" v:val="VT0(0):5"/>
					<v:ud v:nameU="CTypeTopRightSnip" v:prompt="" v:val="VT0(0):5"/>
					<v:ud v:nameU="CTypeBotLeftSnip" v:prompt="" v:val="VT0(0):5"/>
					<v:ud v:nameU="CTypeBotRightSnip" v:prompt="" v:val="VT0(0):5"/>
					<v:ud v:nameU="CornerLockHoriz" v:prompt="" v:val="VT0(0):5"/>
					<v:ud v:nameU="CornerLockVert" v:prompt="" v:val="VT0(0):5"/>
					<v:ud v:nameU="CornerLockDiag" v:prompt="" v:val="VT0(0):5"/>
					<v:ud v:nameU="TopLeftOffset" v:prompt="" v:val="VT0(0.15748031496063):24"/>
					<v:ud v:nameU="TopRightOffset" v:prompt="" v:val="VT0(0.15748031496063):24"/>
					<v:ud v:nameU="BotLeftOffset" v:prompt="" v:val="VT0(0.15748031496063):24"/>
					<v:ud v:nameU="BotRightOffset" v:prompt="" v:val="VT0(0.15748031496063):24"/>
					<v:ud v:nameU="visVersion" v:prompt="" v:val="VT0(15):26"/>
					<v:ud v:nameU="TopLeftOffset" v:prompt="" v:val="VT0(0):1"/>
					<v:ud v:nameU="TopRightOffset" v:prompt="" v:val="VT0(0.089331925994661):1"/>
					<v:ud v:nameU="BotLeftOffset" v:prompt="" v:val="VT0(0):1"/>
					<v:ud v:nameU="BotRightOffset" v:prompt="" v:val="VT0(0.089331925994661):1"/>
				</v:userDefs>
				<v:textBlock v:margins="rect(4,4,4,4)" v:tabSpace="42.5197"/>
				<v:textRect cx="32.1595" cy="305.965" width="64.32" height="23.8323"/>
				<path d="M0 317.88 L57.89 317.88 A6.43179 6.43179 -180 0 0 64.32 311.45 L64.32 300.48 A6.43179 6.43179 -180 0 0 57.89
							 294.05 L0 294.05 L0 317.88 Z" class="st20"/>
				<text x="4.14" y="309.57" class="st23" v:langID="1026"><v:paragraph v:horizAlign="1"/><v:tabList/>L2 Header</text>			</g>
			<g id="shape24-193" v:mID="24" v:groupContext="shape" transform="translate(177.386,-155.197)">
				<title>Rectangle.24</title>
				<desc>L3 Header</desc>
				<v:userDefs>
					<v:ud v:nameU="visVersion" v:val="VT0(15):26"/>
				</v:userDefs>
				<v:textBlock v:margins="rect(4,4,4,4)" v:tabSpace="42.5197"/>
				<v:textRect cx="32.1594" cy="305.965" width="64.33" height="23.8323"/>
				<rect x="0" y="294.049" width="64.319" height="23.8323" class="st20"/>
				<text x="4.14" y="309.57" class="st23" v:langID="1026"><v:paragraph v:horizAlign="1"/><v:tabList/>L<tspan
							class="st24" v:langID="1033">7</tspan> Header</text>			</g>
			<g id="shape27-197" v:mID="27" v:groupContext="shape" transform="translate(62.4154,-155.197)">
				<title>Round Corner Rectangle</title>
				<desc>L2 Trailer</desc>
				<v:userDefs>
					<v:ud v:nameU="CTypeTopLeftSnip" v:prompt="" v:val="VT0(0):5"/>
					<v:ud v:nameU="CTypeTopRightSnip" v:prompt="" v:val="VT0(0):5"/>
					<v:ud v:nameU="CTypeBotLeftSnip" v:prompt="" v:val="VT0(0):5"/>
					<v:ud v:nameU="CTypeBotRightSnip" v:prompt="" v:val="VT0(0):5"/>
					<v:ud v:nameU="CornerLockHoriz" v:prompt="" v:val="VT0(0):5"/>
					<v:ud v:nameU="CornerLockVert" v:prompt="" v:val="VT0(0):5"/>
					<v:ud v:nameU="CornerLockDiag" v:prompt="" v:val="VT0(0):5"/>
					<v:ud v:nameU="TopLeftOffset" v:prompt="" v:val="VT0(0.15748031496063):24"/>
					<v:ud v:nameU="TopRightOffset" v:prompt="" v:val="VT0(0.15748031496063):24"/>
					<v:ud v:nameU="BotLeftOffset" v:prompt="" v:val="VT0(0.15748031496063):24"/>
					<v:ud v:nameU="BotRightOffset" v:prompt="" v:val="VT0(0.15748031496063):24"/>
					<v:ud v:nameU="visVersion" v:prompt="" v:val="VT0(15):26"/>
					<v:ud v:nameU="TopLeftOffset" v:prompt="" v:val="VT0(0.031912768447368):1"/>
					<v:ud v:nameU="TopRightOffset" v:prompt="" v:val="VT0(0):1"/>
					<v:ud v:nameU="BotLeftOffset" v:prompt="" v:val="VT0(0.031912783338631):1"/>
					<v:ud v:nameU="BotRightOffset" v:prompt="" v:val="VT0(0):1"/>
				</v:userDefs>
				<v:textBlock v:margins="rect(4,4,4,4)" v:tabSpace="42.5197"/>
				<v:textRect cx="30.545" cy="305.965" width="61.1" height="23.8323"/>
				<path d="M2.3 317.88 L61.09 317.88 L61.09 294.05 L2.3 294.05 A2.29768 2.29768 -180 0 0 0 296.35 L0 315.58 A2.29768
							 2.29768 -180 0 0 2.3 317.88 Z" class="st20"/>
				<text x="5.2" y="309.57" class="st23" v:langID="1026"><v:paragraph v:horizAlign="1"/><v:tabList/>L2 <tspan
							class="st24" v:langID="1033">Trailer</tspan></text>			</g>
			<g id="group405-201" transform="translate(70.2992,-223.015)" v:mID="405" v:groupContext="group">
				<title>Sheet.405</title>
				<g id="group369-202" transform="translate(9.07087,0)" v:mID="369" v:groupContext="group">
					<title>packet</title>
					<g id="shape370-203" v:mID="370" v:groupContext="shape">
						<title>Parallelogram</title>
						<v:userDefs>
							<v:ud v:nameU="visVersion" v:prompt="" v:val="VT0(15):26"/>
						</v:userDefs>
						<path d="M3.47 317.88 L27.74 317.88 A2.83465 2.83465 -180 0 0 30.52 315.61 L32.71 304.82 A2.83465 2.83465
									 -180 0 0 29.93 301.42 L5.66 301.42 A2.83465 2.83465 -180 0 0 2.88 303.69 L0.69 314.48 A2.83465
									 2.83465 -180 0 0 3.47 317.88 Z" class="st25"/>
					</g>
					<g id="shape371-205" v:mID="371" v:groupContext="shape"
							transform="translate(-198.567,69.5241) rotate(-38.9395)">
						<title>Sheet.371</title>
						<path d="M0 317.88 L14.71 317.88" class="st26"/>
					</g>
					<g id="shape372-208" v:mID="372" v:groupContext="shape" transform="translate(248.588,86.578) rotate(45.9058)">
						<title>Sheet.372</title>
						<path d="M0 317.88 L13.85 317.88" class="st26"/>
					</g>
					<g id="shape373-211" v:mID="373" v:groupContext="shape" transform="translate(180.561,37.3977) rotate(33.7673)">
						<title>Sheet.373</title>
						<path d="M0 317.88 L14.53 317.88" class="st26"/>
					</g>
					<g id="shape374-214" v:mID="374" v:groupContext="shape" transform="translate(163.126,592.05) rotate(155.658)">
						<title>Sheet.374</title>
						<path d="M0 317.88 L17.72 317.88" class="st27"/>
					</g>
				</g>
				<g id="shape401-217" v:mID="401" v:groupContext="shape" transform="translate(40.8009,-8.23156)">
					<title>Sheet.401</title>
					<path d="M0 317.88 L11.18 317.88" class="st28"/>
				</g>
				<g id="shape402-223" v:mID="402" v:groupContext="shape" transform="translate(6.33043,623.324) rotate(-179.053)">
					<title>Sheet.402</title>
					<path d="M0 317.88 L5.35 317.88" class="st30"/>
				</g>
				<g id="shape403-226" v:mID="403" v:groupContext="shape" transform="translate(10.7409,627.531) rotate(180)">
					<title>Sheet.403</title>
					<path d="M0 317.88 L7.34 317.88" class="st30"/>
				</g>
				<g id="shape404-229" v:mID="404" v:groupContext="shape" transform="translate(8.91436,631.812) rotate(-179.827)">
					<title>Sheet.404</title>
					<path d="M0 317.88 L9.87 317.88" class="st30"/>
				</g>
			</g>
			<g id="group406-232" transform="translate(235.276,-223.015)" v:mID="406" v:groupContext="group">
				<title>Sheet.406</title>
				<g id="group407-233" transform="translate(9.07087,0)" v:mID="407" v:groupContext="group">
					<title>packet</title>
					<g id="shape408-234" v:mID="408" v:groupContext="shape">
						<title>Parallelogram</title>
						<v:userDefs>
							<v:ud v:nameU="visVersion" v:prompt="" v:val="VT0(15):26"/>
						</v:userDefs>
						<path d="M3.47 317.88 L27.74 317.88 A2.83465 2.83465 -180 0 0 30.52 315.61 L32.71 304.82 A2.83465 2.83465
									 -180 0 0 29.93 301.42 L5.66 301.42 A2.83465 2.83465 -180 0 0 2.88 303.69 L0.69 314.48 A2.83465
									 2.83465 -180 0 0 3.47 317.88 Z" class="st25"/>
					</g>
					<g id="shape409-236" v:mID="409" v:groupContext="shape"
							transform="translate(-198.567,69.5241) rotate(-38.9395)">
						<title>Sheet.409</title>
						<path d="M0 317.88 L14.71 317.88" class="st26"/>
					</g>
					<g id="shape410-239" v:mID="410" v:groupContext="shape" transform="translate(248.588,86.578) rotate(45.9058)">
						<title>Sheet.410</title>
						<path d="M0 317.88 L13.85 317.88" class="st26"/>
					</g>
					<g id="shape411-242" v:mID="411" v:groupContext="shape" transform="translate(180.561,37.3977) rotate(33.7673)">
						<title>Sheet.411</title>
						<path d="M0 317.88 L14.53 317.88" class="st26"/>
					</g>
					<g id="shape412-245" v:mID="412" v:groupContext="shape" transform="translate(163.126,592.05) rotate(155.658)">
						<title>Sheet.412</title>
						<path d="M0 317.88 L17.72 317.88" class="st27"/>
					</g>
				</g>
				<g id="shape413-248" v:mID="413" v:groupContext="shape" transform="translate(40.8013,-8.23156) rotate(6.73975E-05)">
					<title>Sheet.413</title>
					<path d="M0 317.88 L12.32 317.88" class="st28"/>
				</g>
				<g id="shape414-253" v:mID="414" v:groupContext="shape" transform="translate(6.33043,623.324) rotate(-179.053)">
					<title>Sheet.414</title>
					<path d="M0 317.88 L5.35 317.88" class="st30"/>
				</g>
				<g id="shape415-256" v:mID="415" v:groupContext="shape" transform="translate(10.7409,627.531) rotate(180)">
					<title>Sheet.415</title>
					<path d="M0 317.88 L7.34 317.88" class="st30"/>
				</g>
				<g id="shape416-259" v:mID="416" v:groupContext="shape" transform="translate(8.91436,631.812) rotate(-179.827)">
					<title>Sheet.416</title>
					<path d="M0 317.88 L9.87 317.88" class="st30"/>
				</g>
			</g>
			<g id="group440-262" transform="translate(152.787,-223.015)" v:mID="440" v:groupContext="group">
				<title>Sheet.440</title>
				<g id="group441-263" transform="translate(9.07087,0)" v:mID="441" v:groupContext="group">
					<title>packet</title>
					<g id="shape442-264" v:mID="442" v:groupContext="shape">
						<title>Parallelogram</title>
						<v:userDefs>
							<v:ud v:nameU="visVersion" v:prompt="" v:val="VT0(15):26"/>
						</v:userDefs>
						<path d="M3.47 317.88 L27.74 317.88 A2.83465 2.83465 -180 0 0 30.52 315.61 L32.71 304.82 A2.83465 2.83465
									 -180 0 0 29.93 301.42 L5.66 301.42 A2.83465 2.83465 -180 0 0 2.88 303.69 L0.69 314.48 A2.83465
									 2.83465 -180 0 0 3.47 317.88 Z" class="st25"/>
					</g>
					<g id="shape443-266" v:mID="443" v:groupContext="shape"
							transform="translate(-198.567,69.5241) rotate(-38.9395)">
						<title>Sheet.443</title>
						<path d="M0 317.88 L14.71 317.88" class="st26"/>
					</g>
					<g id="shape444-269" v:mID="444" v:groupContext="shape" transform="translate(248.588,86.578) rotate(45.9058)">
						<title>Sheet.444</title>
						<path d="M0 317.88 L13.85 317.88" class="st26"/>
					</g>
					<g id="shape445-272" v:mID="445" v:groupContext="shape" transform="translate(180.561,37.3977) rotate(33.7673)">
						<title>Sheet.445</title>
						<path d="M0 317.88 L14.53 317.88" class="st26"/>
					</g>
					<g id="shape446-275" v:mID="446" v:groupContext="shape" transform="translate(163.126,592.05) rotate(155.658)">
						<title>Sheet.446</title>
						<path d="M0 317.88 L17.72 317.88" class="st27"/>
					</g>
				</g>
				<g id="shape447-278" v:mID="447" v:groupContext="shape" transform="translate(40.8009,-8.23156)">
					<title>Sheet.447</title>
					<path d="M0 317.88 L11.18 317.88" class="st28"/>
				</g>
				<g id="shape448-283" v:mID="448" v:groupContext="shape" transform="translate(6.33043,623.324) rotate(-179.053)">
					<title>Sheet.448</title>
					<path d="M0 317.88 L5.35 317.88" class="st30"/>
				</g>
				<g id="shape449-286" v:mID="449" v:groupContext="shape" transform="translate(10.7409,627.531) rotate(180)">
					<title>Sheet.449</title>
					<path d="M0 317.88 L7.34 317.88" class="st30"/>
				</g>
				<g id="shape450-289" v:mID="450" v:groupContext="shape" transform="translate(8.91436,631.812) rotate(-179.827)">
					<title>Sheet.450</title>
					<path d="M0 317.88 L9.87 317.88" class="st30"/>
				</g>
			</g>
			<g id="group451-292" transform="translate(317.764,-223.015)" v:mID="451" v:groupContext="group">
				<title>Sheet.451</title>
				<g id="group452-293" transform="translate(9.07087,0)" v:mID="452" v:groupContext="group">
					<title>packet</title>
					<g id="shape453-294" v:mID="453" v:groupContext="shape">
						<title>Parallelogram</title>
						<v:userDefs>
							<v:ud v:nameU="visVersion" v:prompt="" v:val="VT0(15):26"/>
						</v:userDefs>
						<path d="M3.47 317.88 L27.74 317.88 A2.83465 2.83465 -180 0 0 30.52 315.61 L32.71 304.82 A2.83465 2.83465
									 -180 0 0 29.93 301.42 L5.66 301.42 A2.83465 2.83465 -180 0 0 2.88 303.69 L0.69 314.48 A2.83465
									 2.83465 -180 0 0 3.47 317.88 Z" class="st25"/>
					</g>
					<g id="shape454-296" v:mID="454" v:groupContext="shape"
							transform="translate(-198.567,69.5241) rotate(-38.9395)">
						<title>Sheet.454</title>
						<path d="M0 317.88 L14.71 317.88" class="st26"/>
					</g>
					<g id="shape455-299" v:mID="455" v:groupContext="shape" transform="translate(248.588,86.578) rotate(45.9058)">
						<title>Sheet.455</title>
						<path d="M0 317.88 L13.85 317.88" class="st26"/>
					</g>
					<g id="shape456-302" v:mID="456" v:groupContext="shape" transform="translate(180.561,37.3977) rotate(33.7673)">
						<title>Sheet.456</title>
						<path d="M0 317.88 L14.53 317.88" class="st26"/>
					</g>
					<g id="shape457-305" v:mID="457" v:groupContext="shape" transform="translate(163.126,592.05) rotate(155.658)">
						<title>Sheet.457</title>
						<path d="M0 317.88 L17.72 317.88" class="st27"/>
					</g>
				</g>
				<g id="shape458-308" v:mID="458" v:groupContext="shape" transform="translate(40.8009,-8.23156)">
					<title>Sheet.458</title>
					<path d="M0 317.88 L11.18 317.88" class="st28"/>
				</g>
				<g id="shape459-313" v:mID="459" v:groupContext="shape" transform="translate(6.33043,623.324) rotate(-179.053)">
					<title>Sheet.459</title>
					<path d="M0 317.88 L5.35 317.88" class="st30"/>
				</g>
				<g id="shape460-316" v:mID="460" v:groupContext="shape" transform="translate(10.7409,627.531) rotate(180)">
					<title>Sheet.460</title>
					<path d="M0 317.88 L7.34 317.88" class="st30"/>
				</g>
				<g id="shape461-319" v:mID="461" v:groupContext="shape" transform="translate(8.91436,631.812) rotate(-179.827)">
					<title>Sheet.461</title>
					<path d="M0 317.88 L9.87 317.88" class="st30"/>
				</g>
			</g>
			<g id="group462-322" transform="translate(400.252,-223.015)" v:mID="462" v:groupContext="group">
				<title>Sheet.462</title>
				<g id="group463-323" transform="translate(9.07087,0)" v:mID="463" v:groupContext="group">
					<title>packet</title>
					<g id="shape464-324" v:mID="464" v:groupContext="shape">
						<title>Parallelogram</title>
						<v:userDefs>
							<v:ud v:nameU="visVersion" v:prompt="" v:val="VT0(15):26"/>
						</v:userDefs>
						<path d="M3.47 317.88 L27.74 317.88 A2.83465 2.83465 -180 0 0 30.52 315.61 L32.71 304.82 A2.83465 2.83465
									 -180 0 0 29.93 301.42 L5.66 301.42 A2.83465 2.83465 -180 0 0 2.88 303.69 L0.69 314.48 A2.83465
									 2.83465 -180 0 0 3.47 317.88 Z" class="st25"/>
					</g>
					<g id="shape465-326" v:mID="465" v:groupContext="shape"
							transform="translate(-198.567,69.5241) rotate(-38.9395)">
						<title>Sheet.465</title>
						<path d="M0 317.88 L14.71 317.88" class="st26"/>
					</g>
					<g id="shape466-329" v:mID="466" v:groupContext="shape" transform="translate(248.588,86.578) rotate(45.9058)">
						<title>Sheet.466</title>
						<path d="M0 317.88 L13.85 317.88" class="st26"/>
					</g>
					<g id="shape467-332" v:mID="467" v:groupContext="shape" transform="translate(180.561,37.3977) rotate(33.7673)">
						<title>Sheet.467</title>
						<path d="M0 317.88 L14.53 317.88" class="st26"/>
					</g>
					<g id="shape468-335" v:mID="468" v:groupContext="shape" transform="translate(163.126,592.05) rotate(155.658)">
						<title>Sheet.468</title>
						<path d="M0 317.88 L17.72 317.88" class="st27"/>
					</g>
				</g>
				<g id="shape469-338" v:mID="469" v:groupContext="shape" transform="translate(40.8009,-8.23156)">
					<title>Sheet.469</title>
					<path d="M0 317.88 L11.18 317.88" class="st28"/>
				</g>
				<g id="shape470-343" v:mID="470" v:groupContext="shape" transform="translate(6.33043,623.324) rotate(-179.053)">
					<title>Sheet.470</title>
					<path d="M0 317.88 L5.35 317.88" class="st30"/>
				</g>
				<g id="shape471-346" v:mID="471" v:groupContext="shape" transform="translate(10.7409,627.531) rotate(180)">
					<title>Sheet.471</title>
					<path d="M0 317.88 L7.34 317.88" class="st30"/>
				</g>
				<g id="shape472-349" v:mID="472" v:groupContext="shape" transform="translate(8.91436,631.812) rotate(-179.827)">
					<title>Sheet.472</title>
					<path d="M0 317.88 L9.87 317.88" class="st30"/>
				</g>
			</g>
			<g id="shape475-352" v:mID="475" v:groupContext="shape" transform="translate(0,-202.968)">
				<title>Sheet.475</title>
				<desc>Client</desc>
				<v:userDefs/>
				<v:textBlock v:margins="rect(4,4,4,4)" v:tabSpace="42.5197"/>
				<v:textRect cx="38.2677" cy="307.881" width="76.54" height="20"/>
				<rect x="0" y="297.881" width="76.5354" height="20" class="st31"/>
				<text x="15.26" y="313.28" class="st32" v:langID="2057"><v:paragraph v:horizAlign="1"/><v:tabList/>Client</text>			</g>
			<g id="shape476-355" v:mID="476" v:groupContext="shape" transform="translate(452.126,-203.413)">
				<title>Sheet.476</title>
				<desc>Client</desc>
				<v:userDefs/>
				<v:textBlock v:margins="rect(4,4,4,4)" v:tabSpace="42.5197"/>
				<v:textRect cx="32.1595" cy="307.881" width="64.33" height="20"/>
				<rect x="0" y="297.881" width="64.319" height="20" class="st31"/>
				<text x="13.65" y="312.38" class="st32" v:langID="1033"><v:paragraph v:spLine="-1" v:horizAlign="1"/><v:tabList/><v:newlineChar/>Web<v:newlineChar/><tspan
							x="5.65" dy="1em" class="st24">Server</tspan></text>			</g>
			<g id="shape477-359" v:mID="477" v:groupContext="shape" transform="translate(79.9199,-251.13)">
				<title>Sheet.477</title>
				<desc>Web browsing</desc>
				<v:textBlock v:margins="rect(4,4,4,4)" v:tabSpace="42.5197"/>
				<v:textRect cx="30.6313" cy="307.881" width="61.27" height="20"/>
				<rect x="0" y="297.881" width="61.2625" height="20" class="st31"/>
				<text x="4" y="304.28" class="st16" v:langID="1033"><v:paragraph/><v:tabList/>Web <tspan x="4" dy="1.2em"
							class="st24">browsing</tspan></text>			</g>
		</g>
	</g>
</svg>
